<?xml version="1.0" encoding="utf-8"?>
<?xml-stylesheet type="text/xsl" href="rss1.xsl"?>
<rss version="2.0" xmlns:atom="http://www.w3.org/2005/Atom" xmlns:content="http://purl.org/rss/1.0/modules/content/" xmlns:dc="http://purl.org/dc/elements/1.1/" xmlns:media="http://search.yahoo.com/mrss/">
<channel>
 <title>Getty</title>
 <link>http://www.gettyimg.com/</link>
 <atom:link href="http://www.gettyimg.com/" rel="self" type="application/rss+xml" />

 
                <item>
                <title><![CDATA[【HD Live Performances】WEB-RiP - Adele - Rumor Has It (Las Vegas Residency) 2160p 60fps]]></title>
                <link><![CDATA[https://sharemania.us/threads/adele-rumor-has-it-las-vegas-residency-2160p-60fps.222635/]]></link>
                <description><![CDATA[<article>
<blockquote class="messageText SelectQuoteContainer ugc baseHtml">
<img src="https://images2.imgbox.com/a4/a6/KwCcQWzO_o.png" class="bbCodeImage LbImage" alt="[​IMG]" data-url="https://images2.imgbox.com/a4/a6/KwCcQWzO_o.png" style=""> <br>
<img src="https://images2.imgbox.com/1e/39/T3r3ptgv_o.png" class="bbCodeImage LbImage" alt="[​IMG]" data-url="https://images2.imgbox.com/1e/39/T3r3ptgv_o.png" style=""> <br>
<img src="https://images2.imgbox.com/6c/15/LL1Mu96U_o.jpg" class="bbCodeImage LbImage" alt="[​IMG]" data-url="https://images2.imgbox.com/6c/15/LL1Mu96U_o.jpg" style=""> <br>
<div style="text-align: center">
<div class="bbCodeBlock bbCodeVfcHH HiddenContent">
<div class="attribution type">Hidden Content:</div>
<blockquote>You must reply before you can see the hidden data contained here.</blockquote>
</div></div>
<div class="messageTextEndMarker">&nbsp;</div>
</blockquote>
</article>]]></description>
                <author><![CDATA[Cauã]]></author>
                </item>

                
                <item>
                <title><![CDATA[【HD Live Performances】FEED - Pitbull feat. Chris Brown &amp; Qaasim Middleton - Fun (American Idol 05-13-15) S14E30 Finale 720p BACKHAUL FLAC5.1 MPEG2-TrollHD]]></title>
                <link><![CDATA[https://sharemania.us/threads/pitbull-feat-chris-brown-qaasim-middleton-fun-american-idol-05-13-15-s14e30-finale-720p-backhaul-flac5-1-mpeg2-trollhd.222631/]]></link>
                <description><![CDATA[<article>
<blockquote class="messageText SelectQuoteContainer ugc baseHtml">
<img src="https://images2.imgbox.com/aa/de/ukAPsHFY_o.jpg" class="bbCodeImage LbImage" alt="[​IMG]" data-url="https://images2.imgbox.com/aa/de/ukAPsHFY_o.jpg" style=""> <br>
<br>
<div class="bbCodeBlock bbCodeCode">
<div class="type">Code:</div>
<pre>General
Unique ID                      : 151737707088743471582217408981732892256 (0x72279E8F85E2B6E7E6024A9313E31E60)
Format                         : Matroska
Format version                 : Version 4
File size                      : 1.15 GiB
Duration                       : 3 min 36 s
Overall bit rate mode          : Variable
Overall bit rate               : 45.5 Mb/s
Encoded date                   : UTC 2023-06-13 17:24:54
Writing application            : mkvmerge v30.0.0 ('Interstellar') 64-bit
Writing library                : libebml v1.3.6 + libmatroska v1.4.9

Video
ID                             : 1
Format                         : MPEG Video
Format version                 : Version 2
Format profile                 : Main@High
Format settings                : CustomMatrix / BVOP
Format settings, BVOP          : Yes
Format settings, Matrix        : Custom
Format settings, GOP           : M=3, N=15
Codec ID                       : V_MPEG2
Codec ID/Info                  : MPEG 1 or 2 Video
Duration                       : 3 min 36 s
Bit rate mode                  : Variable
Bit rate                       : 43.9 Mb/s
Width                          : 1 280 pixels
Height                         : 720 pixels
Display aspect ratio           : 16:9
Frame rate mode                : Constant
Frame rate                     : 59.940 (60000/1001) FPS
Color space                    : YUV
Chroma subsampling             : 4:2:0
Bit depth                      : 8 bits
Scan type                      : Progressive
Compression mode               : Lossy
Bits/(Pixel*Frame)             : 0.795
Time code of first frame       : 01:00:32;11
Time code source               : Group of pictures header
GOP, Open/Closed               : Open
Stream size                    : 1.10 GiB (95%)
Default                        : Yes
Forced                         : No
Color primaries                : BT.709
Transfer characteristics       : BT.709
Matrix coefficients            : BT.709

Audio
ID                             : 2
Format                         : FLAC
Format/Info                    : Free Lossless Audio Codec
Codec ID                       : A_FLAC
Duration                       : 3 min 36 s
Bit rate mode                  : Variable
Bit rate                       : 2 067 kb/s
Channel(s)                     : 6 channels
Channel layout                 : L R C LFE Ls Rs
Sampling rate                  : 48.0 kHz
Frame rate                     : 11.719 FPS (4096 SPF)
Bit depth                      : 16 bits
Compression mode               : Lossless
Delay relative to video        : 86 ms
Stream size                    : 53.4 MiB (5%)
Writing library                : libFLAC 1.3.1 (UTC 2014-11-25)
Language                       : English
Default                        : Yes
Forced                         : No

</pre>
</div>
<div class="bbCodeBlock bbCodeVfcHH HiddenContent">
<div class="attribution type">Hidden Content:</div>
<blockquote>You must either reply or click 'Like' to see the hidden information contained here.</blockquote>
</div><br>
<br>
Cutted using <b>MKVToolNix GUI </b>from:<br>
<b><span style="color: rgb(255, 0, 0)">*American Idol S14E30 Season 14 Finale 720p HDTV Backhaul FLAC 5.1 MPEG2-TrollHD<br>
<br>
<img src="styles/default/xenforo/smilies/super_man-48.png" class="mceSmilie" alt=":super:" title="Super Man    :super:"><img src="styles/default/xenforo/smilies/super_man-48.png" class="mceSmilie" alt=":super:" title="Super Man    :super:"><img src="styles/default/xenforo/smilies/super_man-48.png" class="mceSmilie" alt=":super:" title="Super Man    :super:"></span></b>
<div class="messageTextEndMarker">&nbsp;</div>
</blockquote>
</article>]]></description>
                <author><![CDATA[Dream66]]></author>
                </item>

                
                <item>
                <title><![CDATA[【HD Live Performances】FEED - Prince Royce ft. Jennifer Lopez &amp; Pitbull - Back It Up (American Idol 05-13-15) S14E30 Finale 720p BACKHAUL FLAC5.1 MPEG2-TrollHD]]></title>
                <link><![CDATA[https://sharemania.us/threads/prince-royce-ft-jennifer-lopez-pitbull-back-it-up-american-idol-05-13-15-s14e30-finale-720p-backhaul-flac5-1-mpeg2-trollhd.222633/]]></link>
                <description><![CDATA[<article>
<blockquote class="messageText SelectQuoteContainer ugc baseHtml">
<img src="https://images2.imgbox.com/93/e1/MVh1goPj_o.jpg" class="bbCodeImage LbImage" alt="[​IMG]" data-url="https://images2.imgbox.com/93/e1/MVh1goPj_o.jpg" style=""> <br>
<br>
<div class="bbCodeBlock bbCodeCode">
<div class="type">Code:</div>
<pre>General
Unique ID                      : 78867034525362008053549569860672987779 (0x3B553D03F6E1BA62D9E1E008F360A283)
Format                         : Matroska
Format version                 : Version 4
File size                      : 1.33 GiB
Duration                       : 4 min 8 s
Overall bit rate mode          : Variable
Overall bit rate               : 45.9 Mb/s
Encoded date                   : UTC 2023-06-13 17:16:37
Writing application            : mkvmerge v30.0.0 ('Interstellar') 64-bit
Writing library                : libebml v1.3.6 + libmatroska v1.4.9

Video
ID                             : 1
Format                         : MPEG Video
Format version                 : Version 2
Format profile                 : Main@High
Format settings                : CustomMatrix / BVOP
Format settings, BVOP          : Yes
Format settings, Matrix        : Custom
Format settings, GOP           : M=3, N=15
Codec ID                       : V_MPEG2
Codec ID/Info                  : MPEG 1 or 2 Video
Duration                       : 4 min 8 s
Bit rate mode                  : Variable
Bit rate                       : 43.9 Mb/s
Width                          : 1 280 pixels
Height                         : 720 pixels
Display aspect ratio           : 16:9
Frame rate mode                : Constant
Frame rate                     : 59.940 (60000/1001) FPS
Color space                    : YUV
Chroma subsampling             : 4:2:0
Bit depth                      : 8 bits
Scan type                      : Progressive
Compression mode               : Lossy
Bits/(Pixel*Frame)             : 0.795
Time code of first frame       : 00:27:07;09
Time code source               : Group of pictures header
GOP, Open/Closed               : Open
Stream size                    : 1.27 GiB (95%)
Default                        : Yes
Forced                         : No
Color primaries                : BT.709
Transfer characteristics       : BT.709
Matrix coefficients            : BT.709

Audio
ID                             : 2
Format                         : FLAC
Format/Info                    : Free Lossless Audio Codec
Codec ID                       : A_FLAC
Duration                       : 4 min 8 s
Bit rate mode                  : Variable
Bit rate                       : 2 151 kb/s
Channel(s)                     : 6 channels
Channel layout                 : L R C LFE Ls Rs
Sampling rate                  : 48.0 kHz
Frame rate                     : 11.719 FPS (4096 SPF)
Bit depth                      : 16 bits
Compression mode               : Lossless
Delay relative to video        : 111 ms
Stream size                    : 63.8 MiB (5%)
Writing library                : libFLAC 1.3.1 (UTC 2014-11-25)
Language                       : English
Default                        : Yes
Forced                         : No

</pre>
</div>
<div class="bbCodeBlock bbCodeVfcHH HiddenContent">
<div class="attribution type">Hidden Content:</div>
<blockquote>You must either reply or click 'Like' to see the hidden information contained here.</blockquote>
</div><br>
<br>
Cutted using <b>MKVToolNix GUI </b>from:<br>
<b><span style="color: rgb(255, 0, 0)">*American Idol S14E30 Season 14 Finale 720p HDTV Backhaul FLAC 5.1 MPEG2-TrollHD<br>
<br>
<img src="styles/default/xenforo/smilies/super_man-48.png" class="mceSmilie" alt=":super:" title="Super Man    :super:"><img src="styles/default/xenforo/smilies/super_man-48.png" class="mceSmilie" alt=":super:" title="Super Man    :super:"><img src="styles/default/xenforo/smilies/super_man-48.png" class="mceSmilie" alt=":super:" title="Super Man    :super:"></span></b>
<div class="messageTextEndMarker">&nbsp;</div>
</blockquote>
</article>]]></description>
                <author><![CDATA[Dream66]]></author>
                </item>

                
                <item>
                <title><![CDATA[【Requests】[REQ VID] - Alice In Wonderland 1995]]></title>
                <link><![CDATA[https://sharemania.us/threads/alice-in-wonderland-1995.222632/]]></link>
                <description><![CDATA[<article>
<blockquote class="messageText SelectQuoteContainer ugc baseHtml">
Hi guys!!!<br>
Can someone upload the Alice in Wonderland 1995 movie in high quality?<br>
Please, this movie makes my childhood memories!<br>
<img src="https://pisces.bbystatic.com/image2/BestBuy_US/images/products/4877/4877477_so.jpg" class="bbCodeImage LbImage" alt="[​IMG]" data-url="https://pisces.bbystatic.com/image2/BestBuy_US/images/products/4877/4877477_so.jpg" style=""> <br>
Full movie in YouTube:<br>
<div data-s9e-mediaembed="youtube" style="display:inline-block;width:100%;max-width:640px"><div style="overflow:hidden;position:relative;padding-bottom:56.25%"><iframe allowfullscreen="" scrolling="no" style="background:url(https://i.ytimg.com/vi/qfRAL0AgzGs/hqdefault.jpg) 50% 50% / cover;border:0;height:100%;left:0;position:absolute;width:100%" src="https://www.youtube.com/embed/qfRAL0AgzGs"></iframe></div></div>
<div class="messageTextEndMarker">&nbsp;</div>
</blockquote>
</article>]]></description>
                <author><![CDATA[saeedbarbie]]></author>
                </item>

                
                <item>
                <title><![CDATA[【HD Live Performances】FEED - Steven Tyler - Love Is Your Name &amp; Piece of My Heart ft. Jax (American Idol 05-13-15) Finale 720p BACKHAUL FLAC5.1 MPEG2-TrollHD]]></title>
                <link><![CDATA[https://sharemania.us/threads/steven-tyler-love-is-your-name-piece-of-my-heart-ft-jax-american-idol-05-13-15-finale-720p-backhaul-flac5-1-mpeg2-trollhd.222634/]]></link>
                <description><![CDATA[<article>
<blockquote class="messageText SelectQuoteContainer ugc baseHtml">
<img src="https://images2.imgbox.com/29/b3/W5nWO4Bq_o.jpg" class="bbCodeImage LbImage" alt="[​IMG]" data-url="https://images2.imgbox.com/29/b3/W5nWO4Bq_o.jpg" style=""> <br>
<br>
<div class="bbCodeBlock bbCodeCode">
<div class="type">Code:</div>
<pre>General
Unique ID                      : 34935187531247915009548939223479121755 (0x1A4845BA8F388B84A806E33AA224775B)
Format                         : Matroska
Format version                 : Version 4
File size                      : 2.36 GiB
Duration                       : 7 min 26 s
Overall bit rate mode          : Variable
Overall bit rate               : 45.5 Mb/s
Encoded date                   : UTC 2023-06-13 17:44:00
Writing application            : mkvmerge v30.0.0 ('Interstellar') 64-bit
Writing library                : libebml v1.3.6 + libmatroska v1.4.9

Video
ID                             : 1
Format                         : MPEG Video
Format version                 : Version 2
Format profile                 : Main@High
Format settings                : CustomMatrix / BVOP
Format settings, BVOP          : Yes
Format settings, Matrix        : Custom
Format settings, GOP           : M=3, N=15
Codec ID                       : V_MPEG2
Codec ID/Info                  : MPEG 1 or 2 Video
Duration                       : 7 min 26 s
Bit rate mode                  : Variable
Bit rate                       : 43.4 Mb/s
Maximum bit rate               : 43.9 Mb/s
Width                          : 1 280 pixels
Height                         : 720 pixels
Display aspect ratio           : 16:9
Frame rate mode                : Constant
Frame rate                     : 59.940 (60000/1001) FPS
Color space                    : YUV
Chroma subsampling             : 4:2:0
Bit depth                      : 8 bits
Scan type                      : Progressive
Compression mode               : Lossy
Bits/(Pixel*Frame)             : 0.785
Time code of first frame       : 01:04:23;03
Time code source               : Group of pictures header
GOP, Open/Closed               : Open
Stream size                    : 2.25 GiB (95%)
Default                        : Yes
Forced                         : No
Color primaries                : BT.709
Transfer characteristics       : BT.709
Matrix coefficients            : BT.709

Audio
ID                             : 2
Format                         : FLAC
Format/Info                    : Free Lossless Audio Codec
Codec ID                       : A_FLAC
Duration                       : 7 min 26 s
Bit rate mode                  : Variable
Bit rate                       : 2 141 kb/s
Channel(s)                     : 6 channels
Channel layout                 : L R C LFE Ls Rs
Sampling rate                  : 48.0 kHz
Frame rate                     : 11.719 FPS (4096 SPF)
Bit depth                      : 16 bits
Compression mode               : Lossless
Delay relative to video        : 81 ms
Stream size                    : 114 MiB (5%)
Writing library                : libFLAC 1.3.1 (UTC 2014-11-25)
Language                       : English
Default                        : Yes
Forced                         : No

</pre>
</div>
<div class="bbCodeBlock bbCodeVfcHH HiddenContent">
<div class="attribution type">Hidden Content:</div>
<blockquote>You must either reply or click 'Like' to see the hidden information contained here.</blockquote>
</div><br>
<br>
Cutted using <b>MKVToolNix GUI </b>from:<br>
<b><span style="color: rgb(255, 0, 0)">*American Idol S14E30 Season 14 Finale 720p HDTV Backhaul FLAC 5.1 MPEG2-TrollHD<br>
<br>
<img src="styles/default/xenforo/smilies/super_man-48.png" class="mceSmilie" alt=":super:" title="Super Man    :super:"><img src="styles/default/xenforo/smilies/super_man-48.png" class="mceSmilie" alt=":super:" title="Super Man    :super:"><img src="styles/default/xenforo/smilies/super_man-48.png" class="mceSmilie" alt=":super:" title="Super Man    :super:"></span></b>
<div class="messageTextEndMarker">&nbsp;</div>
</blockquote>
</article>]]></description>
                <author><![CDATA[Dream66]]></author>
                </item>

                </channel></rss>